# ProBuilder 4.4.0
# https://unity3d.com/unity/features/worldbuilding/probuilder
# 23/06/2021 00:12:55

mtllib ./FlatCoral.mtl
o FlatCoral

g FlatCoral
v -22.35032 3.134606 -15.19595
v -22.35032 3.145394 -15.19595
v -22.41391 3.145394 -15.29113
v -22.41391 3.134606 -15.29113
v -22.50909 3.145394 -15.35472
v -22.50909 3.134606 -15.35472
v -22.62136 3.12134 -15.37706
v -22.62136 3.110553 -15.37706
v -22.73363 3.12134 -15.35472
v -22.73363 3.110553 -15.35472
v -22.8288 3.145394 -15.29113
v -22.8288 3.134606 -15.29113
v -22.8924 3.145394 -15.19595
v -22.8924 3.134606 -15.19595
v -22.91473 3.145394 -15.08369
v -22.91473 3.134606 -15.08369
v -22.8924 3.145394 -14.97142
v -22.8924 3.134606 -14.97142
v -22.8288 3.126154 -14.87624
v -22.8288 3.115366 -14.87624
v -22.73363 3.126154 -14.81265
v -22.73363 3.115366 -14.81265
v -22.62136 3.145394 -14.79032
v -22.62136 3.134606 -14.79032
v -22.50909 3.145394 -14.81265
v -22.50909 3.134606 -14.81265
v -22.41392 3.145394 -14.87624
v -22.41392 3.134606 -14.87624
v -22.35032 3.157278 -14.97142
v -22.35032 3.134606 -14.97142
v -22.32799 3.157278 -15.08369
v -22.32799 3.134606 -15.08369
v -22.62136 3.091312 -15.08369
v -22.62136 3.113984 -15.08369
v -22.65935 3.160954 -15.17472
v -22.66 3.177493 -15.17602
v -22.69613 3.181018 -15.11338
v -22.69548 3.164478 -15.11208
v -22.70552 3.186293 -15.0418
v -22.70488 3.169753 -15.04049
v -22.68531 3.155636 -14.96925
v -22.68467 3.139096 -14.96795
v -22.64124 3.161858 -14.91216
v -22.64059 3.145319 -14.91086
v -22.58001 3.204012 -14.87922
v -22.57936 3.187473 -14.87791
v -22.50828 3.207537 -14.87006
v -22.50764 3.190997 -14.86876
v -22.43842 3.208774 -14.889
v -22.43778 3.192235 -14.8877
v -22.38106 3.207537 -14.93315
v -22.38042 3.190997 -14.93185
v -22.34378 3.174513 -14.99346
v -22.34314 3.157974 -14.99216
v -22.33439 3.169238 -15.06505
v -22.33374 3.152699 -15.06374
v -22.35431 3.192515 -15.13701
v -22.35366 3.175975 -15.13571
v -22.39838 3.186293 -15.1941
v -22.39774 3.169753 -15.1928
v -22.46106 3.181018 -15.22995
v -22.46041 3.164478 -15.22865
v -22.53349 3.195714 -15.24054
v -22.53214 3.160954 -15.2378
v -22.60335 3.194476 -15.2216
v -22.60199 3.159716 -15.21886
v -22.51729 3.109597 -15.04805
v -22.51865 3.144357 -15.05079
v -22.76256 3.195882 -15.30089
v -22.76321 3.212422 -15.30219
v -22.80822 3.216813 -15.22416
v -22.80757 3.200273 -15.22286
v -22.81992 3.223384 -15.13498
v -22.81927 3.206845 -15.13368
v -22.79509 3.194257 -15.04532
v -22.79445 3.177717 -15.04402
v -22.74019 3.202008 -14.9742
v -22.73954 3.185469 -14.9729
v -22.66356 3.245459 -14.93244
v -22.66291 3.228919 -14.93114
v -22.5742 3.24985 -14.92104
v -22.57355 3.23331 -14.91974
v -22.48717 3.251392 -14.94464
v -22.48652 3.234852 -14.94333
v -22.41571 3.24985 -14.99963
v -22.41507 3.23331 -14.99833
v -22.36955 3.21596 -15.07534
v -22.36891 3.19942 -15.07403
v -22.35785 3.209388 -15.16452
v -22.3572 3.192849 -15.16321
v -22.38239 3.231136 -15.2536
v -22.38174 3.214596 -15.2523
v -22.43729 3.223384 -15.32472
v -22.43665 3.206845 -15.32342
v -22.51537 3.216813 -15.36938
v -22.51472 3.200273 -15.36808
v -22.60543 3.230642 -15.38222
v -22.60407 3.195882 -15.37948
v -22.69246 3.2291 -15.35863
v -22.6911 3.19434 -15.35589
v -22.58622 3.148218 -15.14438
v -22.58758 3.182978 -15.14712
v -22.72508 3.146657 -15.1831
v -22.72573 3.163196 -15.1844
v -22.77432 3.167937 -15.10016
v -22.77367 3.151397 -15.09886
v -22.78695 3.175032 -15.00387
v -22.78631 3.158492 -15.00257
v -22.76027 3.146522 -14.9073
v -22.75962 3.129982 -14.906
v -22.70099 3.154891 -14.83051
v -22.70034 3.138351 -14.82921
v -22.61814 3.198865 -14.7852
v -22.61749 3.182325 -14.7839
v -22.52166 3.203605 -14.77289
v -22.52102 3.187066 -14.77159
v -22.4277 3.20527 -14.79836
v -22.42705 3.188731 -14.79706
v -22.35055 3.203605 -14.85774
v -22.3499 3.187066 -14.85644
v -22.30081 3.169366 -14.93966
v -22.30016 3.152827 -14.93836
v -22.28817 3.162271 -15.03595
v -22.28753 3.145732 -15.03464
v -22.31457 3.183401 -15.13194
v -22.31392 3.166861 -15.13063
v -22.37385 3.175032 -15.20873
v -22.3732 3.158492 -15.20742
v -22.45814 3.167937 -15.25695
v -22.4575 3.151397 -15.25564
v -22.55532 3.181417 -15.27069
v -22.55397 3.146657 -15.26795
v -22.64929 3.179752 -15.24522
v -22.64793 3.144992 -15.24248
v -22.5349 3.100483 -15.01454
v -22.53626 3.135243 -15.01728

vt 0.375 0.3125
vt 0.375 0.6884398
vt 0.390625 0.6884398
vt 0.390625 0.3125
vt 0.40625 0.6884398
vt 0.40625 0.3125
vt 0.421875 0.6884398
vt 0.421875 0.3125
vt 0.4375 0.6884398
vt 0.4375 0.3125
vt 0.453125 0.6884398
vt 0.453125 0.3125
vt 0.46875 0.6884398
vt 0.46875 0.3125
vt 0.484375 0.6884398
vt 0.484375 0.3125
vt 0.5 0.6884398
vt 0.5 0.3125
vt 0.515625 0.6884398
vt 0.515625 0.3125
vt 0.53125 0.6884398
vt 0.53125 0.3125
vt 0.546875 0.6884398
vt 0.546875 0.3125
vt 0.5625 0.6884398
vt 0.5625 0.3125
vt 0.578125 0.6884398
vt 0.578125 0.3125
vt 0.59375 0.6884398
vt 0.59375 0.3125
vt 0.609375 0.6884398
vt 0.609375 0.3125
vt 0.625 0.6884398
vt 0.625 0.3125
vt 0.6104855 0.04576463
vt 0.5 0.15
vt 0.6443562 0.09645581
vt 0.5597944 0.01189387
vt 0.5000001 1.490116E-08
vt 0.65625 0.15625
vt 0.6443562 0.2160443
vt 0.4402058 0.01189379
vt 0.3895146 0.04576452
vt 0.6104854 0.2667354
vt 0.5597942 0.3006062
vt 0.3556438 0.09645566
vt 0.5 0.3125
vt 0.34375 0.1562499
vt 0.4402057 0.3006062
vt 0.3556438 0.2160442
vt 0.3895145 0.2667354
vt 0.6443562 0.9035443
vt 0.5 0.8375
vt 0.6104854 0.9542354
vt 0.65625 0.84375
vt 0.5597942 0.9881062
vt 0.6443562 0.7839558
vt 0.5 1
vt 0.6104855 0.7332646
vt 0.4402057 0.9881061
vt 0.5597944 0.6993939
vt 0.3895145 0.9542354
vt 0.5000001 0.6875
vt 0.3556438 0.9035442
vt 0.4402058 0.6993938
vt 0.34375 0.8437499
vt 0.3895146 0.7332645
vt 0.3556438 0.7839557

vn 26.25146 -0.03333788 -12.9705
vn 27.78725 0 -9.409026
vn 20.74442 0 -20.7444
vn 20.70459 -0.0334108 -20.70457
vn 11.22681 0 -27.10387
vn 17.95351 -0.02903146 -23.14821
vn 1.470877E-05 0 -29.33703
vn 6.857607 -0.05611202 -28.36054
vn -11.22678 0 -27.10389
vn -17.18869 -0.05611203 -23.57744
vn -20.7444 0 -20.74442
vn -25.4453 -0.02903147 -14.51567
vn -27.10388 0 -11.2268
vn -27.05183 -0.0334108 -11.20525
vn -29.33703 0 -1.069728E-05
vn -29.28069 -0.0334108 -1.060467E-05
vn -27.10388 0 11.22679
vn -28.93907 -0.03019159 4.52713
vn -20.74442 0 20.74441
vn -24.583 -0.04812567 15.79512
vn -11.2268 0 27.10388
vn -5.185291 -0.04812567 28.75626
vn -3.565762E-06 0 29.33703
vn 6.891967 -0.03019159 28.46867
vn 11.22679 0 27.10388
vn 11.20523 -0.0334108 27.05184
vn 20.74441 0 20.74441
vn 20.72583 -0.025056 20.7182
vn 26.30175 0 12.99536
vn 27.73412 -0.03333788 9.391049
vn 29.33703 0 6.240083E-06
vn 29.30536 -0.025056 -0.005388173
vn 13.91406 -0.4621994 5.92309
vn -28.91911 0.08621033 1.536109
vn -4.77742 0.5064749 -8.887247
vn -20.44516 0.09128776 20.44514
vn -27.49372 0.0629769 -9.644885
vn -24.84415 0.07398766 15.07432
vn -29.09182 0.06297691 -1.610697
vn -17.41223 0.2566913 19.04079
vn -26.12992 0.08621034 -12.48606
vn 23.37339 0.2566913 10.92805
vn -11.06483 0.09128778 -26.71288
vn 28.72169 0.07398766 4.419425
vn -15.80451 0.07690843 -24.35941
vn 26.71288 0.09128775 11.06484
vn -6.034322 0.1837959 -26.91308
vn 28.91381 0.09128773 1.804182E-05
vn 27.17369 0.1837959 -4.724193
vn 28.55328 0.07690841 5.279541
vn -24.44907 -0.01828405 -16.1838
vn -20.79673 -0.000826092 -20.69191
vn -27.81741 -0.0006156507 -9.319429
vn -28.57815 -0.01701673 -6.564586
vn -29.2674 -0.0003326472 2.020007
vn -29.09022 -0.01424842 -3.7175
vn -26.28293 -9.919601E-08 13.03337
vn -27.55618 -0.02264206 9.990062
vn -19.32245 0.0003327827 22.07496
vn -10.35567 -0.01827044 27.43053
vn -9.418239 0.0006156191 27.78411
vn -0.9505972 -0.009382403 29.31718
vn 1.946208 0.0008055823 29.27237
vn 3.038064 -0.01053091 29.17368
vn 13.03335 0.0008722372 26.2829
vn 13.03095 -0.01033526 26.27812
vn 22.12356 0.0008056061 19.26675
vn 17.00546 -0.009477247 23.9
vn 27.81744 0.0006157019 9.319333
vn 24.14683 -0.01478293 16.64168
vn 29.2674 0.0003328823 -2.019892
vn 28.82994 -0.01752474 -5.34669
vn 26.283 6.47811E-08 -13.03324
vn 24.18445 -0.01329002 -16.59069
vn 19.32237 -0.0003329595 -22.07503
vn 21.75301 -0.01518632 -19.66686
vn 9.41849 -0.0006156428 -27.78403
vn 11.51352 -0.01277479 -26.97438
vn -1.868095E-05 -0.000781482 -29.337
vn -2.500993 -0.01867124 -29.21258
vn -13.03326 -0.0008723715 -26.28294
vn -12.82846 -0.01454424 -26.37169
vn 20.38705 -0.3727635 5.827994
vn 15.92781 0.05421505 24.45958
vn -22.9208 0.2268927 -13.52789
vn 29.19928 0.04839789 1.064855
vn 0.8577222 0.03420598 29.26541
vn 27.0722 0.0399758 11.09188
vn 11.02059 0.0349509 27.12184
vn 27.33918 0.1528022 -6.6452
vn -4.025336 0.04993384 28.93236
vn -8.86701 0.05347903 -27.81325
vn -25.34114 0.04144218 14.60847
vn -10.25039 0.02313218 -27.4592
vn -20.40855 0.03624106 20.98253
vn -4.74326 0.02821766 -28.91033
vn -27.29856 0.07028277 10.04174
vn -13.01604 0.02776382 -26.24812
vn -13.77551 0.0435772 -25.793
vn -8.626276 0.02397965 -28.00978
vn -24.77163 -0.02401759 -15.66273
vn -28.74548 -0.02190384 -5.739261
vn -29.15186 -0.01815797 -3.139247
vn -27.33484 -0.02759636 10.54584
vn -9.72388 -0.02149157 27.65395
vn -0.8008299 -0.01139245 29.31955
vn 3.249198 -0.01269718 29.14836
vn 13.02986 -0.01244995 26.27595
vn 17.02271 -0.01148035 23.88511
vn 23.94834 -0.01749305 16.91842
vn 29.2674 0.0003326524 -2.020032
vn 28.92182 -0.02123705 -4.780721
vn 24.58488 -0.0166364 -15.98206
vn 19.32241 -0.0003328323 -22.07499
vn 22.34061 -0.01906978 -18.98638
vn 12.10072 -0.01633675 -26.71038
vn -2.048147 -0.0246897 -29.23462
vn -12.75658 -0.01928551 -26.39755
vn 19.43417 -0.351912 10.7987
vn 16.39435 0.07574479 23.97736
vn -21.99069 0.2329228 -14.71645
vn 29.09472 0.06293039 -1.563082
vn -0.03170003 0.0452921 29.2334
vn 27.53086 0.0525251 9.72375
vn 10.8237 0.04663734 27.14911
vn 26.43955 0.1875816 -7.584059
vn -5.22124 0.06735382 28.63528
vn -9.894163 0.05746516 -27.4408
vn -26.46584 0.0516131 12.3426
vn -10.49196 0.02745926 -27.35598
vn -21.60416 0.04583333 19.69028
vn -5.236611 0.03327713 -28.80908
vn -27.662 0.08326384 8.658252
vn -13.00937 0.03270101 -26.2346
vn -13.23174 0.04873068 -26.04914
vn -8.754229 0.02844848 -27.95765
vn -24.90778 -0.02653918 -15.43309
vn -28.80847 -0.02397763 -5.388205
vn -29.2674 -0.0003328674 2.019986
vn -29.1736 -0.01979691 -2.89879
vn -27.25077 -0.0295392 10.74595
vn -9.490917 -0.02266691 27.732
vn -0.7439851 -0.01216076 29.32013
vn 3.329361 -0.01351807 29.13822
vn 13.02939 -0.01324969 26.27502
vn 17.02963 -0.01224235 23.87906
vn 23.87467 -0.01849696 17.01908
vn 28.95421 -0.02267933 -4.559997
vn 24.74321 -0.0179935 -15.7314
vn 22.57416 -0.02064908 -18.70313
vn 12.34502 -0.01783874 -26.5955
vn -1.848782 -0.0273688 -29.24085
vn -12.72395 -0.02142041 -26.40843
vn 19.038 -0.344341 12.14281
vn 16.58551 0.08598628 23.74257
vn -21.66317 0.2348609 -15.10594
vn 28.9718 0.06901088 -2.684556
vn -0.4236497 0.05019753 29.20663
vn 27.69515 0.05794433 9.149152
vn 10.73313 0.05188084 27.15692
vn 26.06409 0.2009252 -7.867336
vn -5.705096 0.07519379 28.48485
vn -10.22113 0.05879282 -27.31234
vn -26.86242 0.05560302 11.39849
vn -10.5805 0.02908069 -27.31689
vn -22.0645 0.04974221 19.14418
vn -5.420209 0.03515574 -28.7685
vn -27.77942 0.08808976 8.124594
vn -13.00656 0.0345328 -26.22904
vn -13.04968 0.05052911 -26.13071
vn -8.804556 0.03012293 -27.93666

usemtl lambert1
f 29/29/29 27/27/27 28/28/28
f 2/33/2 31/31/31 32/32/32
f 1/37/1 33/36/33 4/35/4
f 4/35/4 33/36/33 6/38/6
f 6/38/6 33/36/33 8/39/8
f 30/41/30 33/36/33 32/40/32
f 8/39/8 33/36/33 10/42/10
f 10/42/10 33/36/33 12/43/12
f 26/45/26 33/36/33 28/44/28
f 12/43/12 33/36/33 14/46/14
f 24/47/24 33/36/33 26/45/26
f 14/46/14 33/36/33 16/48/16
f 22/49/22 33/36/33 24/47/24
f 16/48/16 33/36/33 18/50/18
f 20/51/20 33/36/33 22/49/22
f 18/50/18 33/36/33 20/51/20
f 2/52/34 34/53/35 31/55/37
f 7/58/40 34/53/35 5/56/38
f 9/60/42 34/53/35 7/58/40
f 11/62/44 34/53/35 9/60/42
f 23/63/45 34/53/35 21/65/47
f 21/65/47 34/53/35 19/67/49
f 17/68/50 34/53/35 15/66/48
f 19/67/49 34/53/35 17/68/50
f 63/29/79 61/27/77 62/28/78
f 36/33/52 65/31/81 66/32/82
f 35/37/51 67/36/83 38/35/54
f 38/35/54 67/36/83 40/38/56
f 40/38/56 67/36/83 42/39/58
f 64/41/80 67/36/83 66/40/82
f 42/39/58 67/36/83 44/42/60
f 44/42/60 67/36/83 46/43/62
f 60/45/76 67/36/83 62/44/78
f 46/43/62 67/36/83 48/46/64
f 58/47/74 67/36/83 60/45/76
f 48/46/64 67/36/83 50/48/66
f 56/49/72 67/36/83 58/47/74
f 50/48/66 67/36/83 52/50/68
f 54/51/70 67/36/83 56/49/72
f 52/50/68 67/36/83 54/51/70
f 36/52/84 68/53/85 65/55/87
f 41/58/90 68/53/85 39/56/88
f 43/60/92 68/53/85 41/58/90
f 45/62/94 68/53/85 43/60/92
f 57/63/95 68/53/85 55/65/97
f 55/65/97 68/53/85 53/67/99
f 51/68/100 68/53/85 49/66/98
f 53/67/99 68/53/85 51/68/100
f 97/29/79 95/27/77 96/28/116
f 70/33/52 99/31/81 100/32/118
f 69/37/101 101/36/119 72/35/102
f 72/35/102 101/36/119 74/38/103
f 74/38/103 101/36/119 76/39/104
f 98/41/117 101/36/119 100/40/118
f 76/39/104 101/36/119 78/42/105
f 78/42/105 101/36/119 80/43/106
f 94/45/115 101/36/119 96/44/116
f 80/43/106 101/36/119 82/46/107
f 92/47/113 101/36/119 94/45/115
f 82/46/107 101/36/119 84/48/108
f 90/49/112 101/36/119 92/47/113
f 84/48/108 101/36/119 86/50/109
f 88/51/110 101/36/119 90/49/112
f 86/50/109 101/36/119 88/51/110
f 70/52/120 102/53/121 99/55/123
f 75/58/126 102/53/121 73/56/124
f 77/60/128 102/53/121 75/58/126
f 79/62/130 102/53/121 77/60/128
f 91/63/131 102/53/121 89/65/133
f 89/65/133 102/53/121 87/67/135
f 85/68/136 102/53/121 83/66/134
f 87/67/135 102/53/121 85/68/136
f 131/29/79 129/27/77 130/28/151
f 104/33/52 133/31/81 134/32/153
f 103/37/137 135/36/154 106/35/138
f 106/35/138 135/36/154 108/38/140
f 108/38/140 135/36/154 110/39/141
f 132/41/152 135/36/154 134/40/153
f 110/39/141 135/36/154 112/42/142
f 112/42/142 135/36/154 114/43/143
f 128/45/150 135/36/154 130/44/151
f 114/43/143 135/36/154 116/46/144
f 126/47/149 135/36/154 128/45/150
f 116/46/144 135/36/154 118/48/145
f 124/49/148 135/36/154 126/47/149
f 118/48/145 135/36/154 120/50/146
f 122/51/147 135/36/154 124/49/148
f 120/50/146 135/36/154 122/51/147
f 104/52/155 136/53/156 133/55/158
f 109/58/161 136/53/156 107/56/159
f 111/60/163 136/53/156 109/58/161
f 113/62/165 136/53/156 111/60/163
f 125/63/166 136/53/156 123/65/168
f 123/65/168 136/53/156 121/67/170
f 119/68/171 136/53/156 117/66/169
f 121/67/170 136/53/156 119/68/171
f 3/3/3 2/2/2 1/1/1
f 1/1/1 4/4/4 3/3/3
f 5/5/5 3/3/3 4/4/4
f 4/4/4 6/6/6 5/5/5
f 7/7/7 5/5/5 6/6/6
f 6/6/6 8/8/8 7/7/7
f 9/9/9 7/7/7 8/8/8
f 8/8/8 10/10/10 9/9/9
f 11/11/11 9/9/9 10/10/10
f 10/10/10 12/12/12 11/11/11
f 13/13/13 11/11/11 12/12/12
f 12/12/12 14/14/14 13/13/13
f 15/15/15 13/13/13 14/14/14
f 14/14/14 16/16/16 15/15/15
f 17/17/17 15/15/15 16/16/16
f 16/16/16 18/18/18 17/17/17
f 19/19/19 17/17/17 18/18/18
f 18/18/18 20/20/20 19/19/19
f 21/21/21 19/19/19 20/20/20
f 20/20/20 22/22/22 21/21/21
f 23/23/23 21/21/21 22/22/22
f 22/22/22 24/24/24 23/23/23
f 25/25/25 23/23/23 24/24/24
f 24/24/24 26/26/26 25/25/25
f 27/27/27 25/25/25 26/26/26
f 26/26/26 28/28/28 27/27/27
f 30/30/30 29/29/29 28/28/28
f 28/28/28 33/36/33 30/30/30
f 31/31/31 29/29/29 30/30/30
f 30/30/30 32/32/32 31/31/31
f 1/34/1 2/33/2 32/32/32
f 32/32/32 33/36/33 1/34/1
f 5/56/38 34/53/35 2/52/34
f 2/52/34 3/54/36 5/56/38
f 29/57/39 31/55/37 34/53/35
f 34/53/35 27/59/41 29/57/39
f 25/61/43 27/59/41 34/53/35
f 34/53/35 23/63/45 25/61/43
f 15/66/48 34/53/35 11/62/44
f 11/62/44 13/64/46 15/66/48
f 37/3/53 36/2/52 35/1/51
f 35/1/51 38/4/54 37/3/53
f 39/5/55 37/3/53 38/4/54
f 38/4/54 40/6/56 39/5/55
f 41/7/57 39/5/55 40/6/56
f 40/6/56 42/8/58 41/7/57
f 43/9/59 41/7/57 42/8/58
f 42/8/58 44/10/60 43/9/59
f 45/11/61 43/9/59 44/10/60
f 44/10/60 46/12/62 45/11/61
f 47/13/63 45/11/61 46/12/62
f 46/12/62 48/14/64 47/13/63
f 49/15/65 47/13/63 48/14/64
f 48/14/64 50/16/66 49/15/65
f 51/17/67 49/15/65 50/16/66
f 50/16/66 52/18/68 51/17/67
f 53/19/69 51/17/67 52/18/68
f 52/18/68 54/20/70 53/19/69
f 55/21/71 53/19/69 54/20/70
f 54/20/70 56/22/72 55/21/71
f 57/23/73 55/21/71 56/22/72
f 56/22/72 58/24/74 57/23/73
f 59/25/75 57/23/73 58/24/74
f 58/24/74 60/26/76 59/25/75
f 61/27/77 59/25/75 60/26/76
f 60/26/76 62/28/78 61/27/77
f 64/30/80 63/29/79 62/28/78
f 62/28/78 67/36/83 64/30/80
f 65/31/81 63/29/79 64/30/80
f 64/30/80 66/32/82 65/31/81
f 35/34/51 36/33/52 66/32/82
f 66/32/82 67/36/83 35/34/51
f 39/56/88 68/53/85 36/52/84
f 36/52/84 37/54/86 39/56/88
f 63/57/89 65/55/87 68/53/85
f 68/53/85 61/59/91 63/57/89
f 59/61/93 61/59/91 68/53/85
f 68/53/85 57/63/95 59/61/93
f 49/66/98 68/53/85 45/62/94
f 45/62/94 47/64/96 49/66/98
f 71/3/53 70/2/52 69/1/101
f 69/1/101 72/4/102 71/3/53
f 73/5/55 71/3/53 72/4/102
f 72/4/102 74/6/103 73/5/55
f 75/7/57 73/5/55 74/6/103
f 74/6/103 76/8/104 75/7/57
f 77/9/59 75/7/57 76/8/104
f 76/8/104 78/10/105 77/9/59
f 79/11/61 77/9/59 78/10/105
f 78/10/105 80/12/106 79/11/61
f 81/13/63 79/11/61 80/12/106
f 80/12/106 82/14/107 81/13/63
f 83/15/65 81/13/63 82/14/107
f 82/14/107 84/16/108 83/15/65
f 85/17/67 83/15/65 84/16/108
f 84/16/108 86/18/109 85/17/67
f 87/19/69 85/17/67 86/18/109
f 86/18/109 88/20/110 87/19/69
f 89/21/111 87/19/69 88/20/110
f 88/20/110 90/22/112 89/21/111
f 91/23/73 89/21/111 90/22/112
f 90/22/112 92/24/113 91/23/73
f 93/25/114 91/23/73 92/24/113
f 92/24/113 94/26/115 93/25/114
f 95/27/77 93/25/114 94/26/115
f 94/26/115 96/28/116 95/27/77
f 98/30/117 97/29/79 96/28/116
f 96/28/116 101/36/119 98/30/117
f 99/31/81 97/29/79 98/30/117
f 98/30/117 100/32/118 99/31/81
f 69/34/101 70/33/52 100/32/118
f 100/32/118 101/36/119 69/34/101
f 73/56/124 102/53/121 70/52/120
f 70/52/120 71/54/122 73/56/124
f 97/57/125 99/55/123 102/53/121
f 102/53/121 95/59/127 97/57/125
f 93/61/129 95/59/127 102/53/121
f 102/53/121 91/63/131 93/61/129
f 83/66/134 102/53/121 79/62/130
f 79/62/130 81/64/132 83/66/134
f 105/3/53 104/2/52 103/1/137
f 103/1/137 106/4/138 105/3/53
f 107/5/139 105/3/53 106/4/138
f 106/4/138 108/6/140 107/5/139
f 109/7/57 107/5/139 108/6/140
f 108/6/140 110/8/141 109/7/57
f 111/9/59 109/7/57 110/8/141
f 110/8/141 112/10/142 111/9/59
f 113/11/61 111/9/59 112/10/142
f 112/10/142 114/12/143 113/11/61
f 115/13/63 113/11/61 114/12/143
f 114/12/143 116/14/144 115/13/63
f 117/15/65 115/13/63 116/14/144
f 116/14/144 118/16/145 117/15/65
f 119/17/67 117/15/65 118/16/145
f 118/16/145 120/18/146 119/17/67
f 121/19/69 119/17/67 120/18/146
f 120/18/146 122/20/147 121/19/69
f 123/21/71 121/19/69 122/20/147
f 122/20/147 124/22/148 123/21/71
f 125/23/73 123/21/71 124/22/148
f 124/22/148 126/24/149 125/23/73
f 127/25/75 125/23/73 126/24/149
f 126/24/149 128/26/150 127/25/75
f 129/27/77 127/25/75 128/26/150
f 128/26/150 130/28/151 129/27/77
f 132/30/152 131/29/79 130/28/151
f 130/28/151 135/36/154 132/30/152
f 133/31/81 131/29/79 132/30/152
f 132/30/152 134/32/153 133/31/81
f 103/34/137 104/33/52 134/32/153
f 134/32/153 135/36/154 103/34/137
f 107/56/159 136/53/156 104/52/155
f 104/52/155 105/54/157 107/56/159
f 131/57/160 133/55/158 136/53/156
f 136/53/156 129/59/162 131/57/160
f 127/61/164 129/59/162 136/53/156
f 136/53/156 125/63/166 127/61/164
f 117/66/169 136/53/156 113/62/165
f 113/62/165 115/64/167 117/66/169

